<svg width="56" height="56" viewBox="0 0 56 56" fill="none" xmlns="http://www.w3.org/2000/svg">
<rect width="56" height="56" rx="14" fill="url(#paint0_linear_1_20)"/>
<path d="M28 22.1666V38.5" stroke="white" stroke-width="2.33333" stroke-linecap="round" stroke-linejoin="round"/>
<path d="M17.5 35C17.1906 35 16.8938 34.8771 16.6751 34.6583C16.4563 34.4395 16.3333 34.1428 16.3333 33.8333V18.6667C16.3333 18.3572 16.4563 18.0605 16.6751 17.8417C16.8938 17.6229 17.1906 17.5 17.5 17.5H23.3333C24.571 17.5 25.758 17.9917 26.6332 18.8668C27.5083 19.742 28 20.929 28 22.1667C28 20.929 28.4917 19.742 29.3668 18.8668C30.242 17.9917 31.429 17.5 32.6667 17.5H38.5C38.8094 17.5 39.1062 17.6229 39.325 17.8417C39.5438 18.0605 39.6667 18.3572 39.6667 18.6667V33.8333C39.6667 34.1428 39.5438 34.4395 39.325 34.6583C39.1062 34.8771 38.8094 35 38.5 35H31.5C30.5718 35 29.6815 35.3687 29.0251 36.0251C28.3688 36.6815 28 37.5717 28 38.5C28 37.5717 27.6313 36.6815 26.9749 36.0251C26.3185 35.3687 25.4283 35 24.5 35H17.5Z" stroke="white" stroke-width="2.33333" stroke-linecap="round" stroke-linejoin="round"/>
<defs>
<linearGradient id="paint0_linear_1_20" x1="0" y1="0" x2="56" y2="56" gradientUnits="userSpaceOnUse">
<stop stop-color="#155DFC"/>
<stop offset="1" stop-color="#4F39F6"/>
</linearGradient>
</defs>
</svg>
