<svg width="21" height="33" viewBox="0 0 21 33" fill="none" xmlns="http://www.w3.org/2000/svg">
<path d="M-5.72205e-06 32.16V28.896L9.11999 19.344C10.432 17.968 11.568 16.736 12.528 15.648C13.488 14.528 14.224 13.44 14.736 12.384C15.248 11.296 15.504 10.144 15.504 8.92803C15.504 6.84803 14.928 5.42403 13.776 4.65603C12.656 3.85603 10.96 3.45603 8.68799 3.45603C7.85599 3.45603 6.92799 3.52003 5.90399 3.64803C4.87999 3.74403 3.88799 3.87203 2.92799 4.03203C1.99999 4.16003 1.19999 4.30403 0.527994 4.46403L0.239994 1.29603C0.911994 1.10403 1.74399 0.912032 2.73599 0.720033C3.72799 0.528033 4.79999 0.368033 5.95199 0.240033C7.13599 0.0800333 8.28799 3.33786e-05 9.40799 3.33786e-05C12.768 3.33786e-05 15.28 0.672033 16.944 2.01603C18.64 3.36003 19.488 5.52003 19.488 8.49603C19.488 10.064 19.232 11.472 18.72 12.72C18.24 13.968 17.504 15.2 16.512 16.416C15.552 17.6 14.32 18.928 12.816 20.4L4.51199 28.8H20.256V32.16H-5.72205e-06Z" fill="#155DFC"/>
</svg>
