<svg width="48" height="48" viewBox="0 0 48 48" fill="none" xmlns="http://www.w3.org/2000/svg">
<rect width="48" height="48" rx="14" fill="#2B7FFF"/>
<path d="M33.42 22.922C33.599 22.843 33.7509 22.7133 33.8569 22.5488C33.9629 22.3843 34.0183 22.1924 34.0163 21.9967C34.0143 21.8011 33.9549 21.6103 33.8455 21.4481C33.7362 21.2858 33.5816 21.1592 33.401 21.084L24.83 17.18C24.5694 17.0611 24.2864 16.9996 24 16.9996C23.7136 16.9996 23.4306 17.0611 23.17 17.18L14.6 21.08C14.422 21.158 14.2705 21.2861 14.1642 21.4488C14.0578 21.6115 14.0012 21.8016 14.0012 21.996C14.0012 22.1903 14.0578 22.3805 14.1642 22.5432C14.2705 22.7059 14.422 22.834 14.6 22.912L23.17 26.82C23.4306 26.9388 23.7136 27.0003 24 27.0003C24.2864 27.0003 24.5694 26.9388 24.83 26.82L33.42 22.922Z" stroke="white" stroke-width="2" stroke-linecap="round" stroke-linejoin="round"/>
<path d="M34 22V28" stroke="white" stroke-width="2" stroke-linecap="round" stroke-linejoin="round"/>
<path d="M18 24.5V28C18 28.7956 18.6321 29.5587 19.7574 30.1213C20.8826 30.6839 22.4087 31 24 31C25.5913 31 27.1174 30.6839 28.2426 30.1213C29.3679 29.5587 30 28.7956 30 28V24.5" stroke="white" stroke-width="2" stroke-linecap="round" stroke-linejoin="round"/>
</svg>
