<svg width="56" height="56" viewBox="0 0 56 56" fill="none" xmlns="http://www.w3.org/2000/svg">
<rect width="56" height="56" rx="14" fill="url(#paint0_linear_1_27)"/>
<path d="M19.25 33.25C17.5 34.72 16.9167 39.0833 16.9167 39.0833C16.9167 39.0833 21.28 38.5 22.75 36.75C23.5783 35.77 23.5667 34.265 22.645 33.355C22.1915 32.9222 21.5942 32.6721 20.9676 32.6527C20.341 32.6333 19.7294 32.846 19.25 33.25Z" stroke="white" stroke-width="2.33333" stroke-linecap="round" stroke-linejoin="round"/>
<path d="M28 31.5L24.5 28C25.1208 26.3893 25.9026 24.8454 26.8333 23.3916C28.1927 21.2181 30.0856 19.4285 32.3318 18.1931C34.5781 16.9576 37.1031 16.3174 39.6667 16.3333C39.6667 19.5066 38.7567 25.0833 32.6667 29.1666C31.193 30.0985 29.6297 30.8802 28 31.5Z" stroke="white" stroke-width="2.33333" stroke-linecap="round" stroke-linejoin="round"/>
<path d="M24.5 28H18.6667C18.6667 28 19.3083 24.465 21 23.3333C22.89 22.0733 26.8333 23.3333 26.8333 23.3333" stroke="white" stroke-width="2.33333" stroke-linecap="round" stroke-linejoin="round"/>
<path d="M28 31.5V37.3333C28 37.3333 31.535 36.6916 32.6667 35C33.9267 33.11 32.6667 29.1666 32.6667 29.1666" stroke="white" stroke-width="2.33333" stroke-linecap="round" stroke-linejoin="round"/>
<defs>
<linearGradient id="paint0_linear_1_27" x1="0" y1="0" x2="56" y2="56" gradientUnits="userSpaceOnUse">
<stop stop-color="#155DFC"/>
<stop offset="1" stop-color="#4F39F6"/>
</linearGradient>
</defs>
</svg>
