<svg width="56" height="56" viewBox="0 0 56 56" fill="none" xmlns="http://www.w3.org/2000/svg">
<rect width="56" height="56" rx="14" fill="url(#paint0_linear_1_36)"/>
<path d="M32.6667 38.5V36.1667C32.6667 34.929 32.175 33.742 31.2998 32.8668C30.4247 31.9917 29.2377 31.5 28 31.5H21C19.7623 31.5 18.5753 31.9917 17.7002 32.8668C16.825 33.742 16.3333 34.929 16.3333 36.1667V38.5" stroke="white" stroke-width="2.33333" stroke-linecap="round" stroke-linejoin="round"/>
<path d="M24.5 26.8333C27.0773 26.8333 29.1667 24.744 29.1667 22.1667C29.1667 19.5893 27.0773 17.5 24.5 17.5C21.9227 17.5 19.8333 19.5893 19.8333 22.1667C19.8333 24.744 21.9227 26.8333 24.5 26.8333Z" stroke="white" stroke-width="2.33333" stroke-linecap="round" stroke-linejoin="round"/>
<path d="M39.6667 38.4999V36.1666C39.6659 35.1326 39.3217 34.1282 38.6882 33.311C38.0548 32.4938 37.1678 31.9101 36.1667 31.6516" stroke="white" stroke-width="2.33333" stroke-linecap="round" stroke-linejoin="round"/>
<path d="M32.6667 17.6516C33.6705 17.9086 34.5602 18.4924 35.1956 19.311C35.8309 20.1295 36.1758 21.1362 36.1758 22.1724C36.1758 23.2086 35.8309 24.2154 35.1956 25.0339C34.5602 25.8525 33.6705 26.4363 32.6667 26.6933" stroke="white" stroke-width="2.33333" stroke-linecap="round" stroke-linejoin="round"/>
<defs>
<linearGradient id="paint0_linear_1_36" x1="0" y1="0" x2="56" y2="56" gradientUnits="userSpaceOnUse">
<stop stop-color="#155DFC"/>
<stop offset="1" stop-color="#4F39F6"/>
</linearGradient>
</defs>
</svg>
