<svg width="56" height="56" viewBox="0 0 56 56" fill="none" xmlns="http://www.w3.org/2000/svg">
<rect width="56" height="56" rx="14" fill="url(#paint0_linear_1_45)"/>
<path d="M32.0565 29.0383L33.824 38.9853C33.8438 39.1025 33.8274 39.2228 33.7769 39.3304C33.7264 39.4379 33.6443 39.5275 33.5416 39.5871C33.4389 39.6467 33.3204 39.6735 33.202 39.664C33.0835 39.6544 32.9709 39.609 32.879 39.5337L28.7023 36.3988C28.5007 36.2482 28.2558 36.1668 28.0041 36.1668C27.7524 36.1668 27.5075 36.2482 27.3058 36.3988L23.1222 39.5325C23.0304 39.6077 22.9179 39.6531 22.7996 39.6626C22.6813 39.6722 22.563 39.6455 22.4603 39.586C22.3576 39.5266 22.2755 39.4372 22.2249 39.3299C22.1743 39.2226 22.1577 39.1024 22.1772 38.9853L23.9435 29.0383" stroke="white" stroke-width="2.33333" stroke-linecap="round" stroke-linejoin="round"/>
<path d="M28 30.3334C31.866 30.3334 35 27.1994 35 23.3334C35 19.4674 31.866 16.3334 28 16.3334C24.134 16.3334 21 19.4674 21 23.3334C21 27.1994 24.134 30.3334 28 30.3334Z" stroke="white" stroke-width="2.33333" stroke-linecap="round" stroke-linejoin="round"/>
<defs>
<linearGradient id="paint0_linear_1_45" x1="0" y1="0" x2="56" y2="56" gradientUnits="userSpaceOnUse">
<stop stop-color="#155DFC"/>
<stop offset="1" stop-color="#4F39F6"/>
</linearGradient>
</defs>
</svg>
