<svg width="22" height="33" viewBox="0 0 22 33" fill="none" xmlns="http://www.w3.org/2000/svg">
<path d="M10.512 32.1121C9.328 32.1121 8.08 32.0321 6.768 31.8721C5.456 31.7121 4.192 31.5361 2.976 31.3441C1.792 31.1201 0.800004 30.9121 3.69549e-06 30.7201L0.432004 27.6481C1.232 27.7761 2.192 27.9361 3.312 28.1281C4.432 28.2881 5.584 28.4321 6.768 28.5601C7.984 28.6561 9.104 28.7041 10.128 28.7041C12.304 28.7041 14.016 28.0801 15.264 26.8321C16.544 25.5841 17.184 23.7761 17.184 21.4081C17.184 19.8081 16.912 18.5601 16.368 17.6641C15.824 16.7361 15.056 16.0801 14.064 15.6961C13.072 15.3121 11.92 15.1201 10.608 15.1201C9.648 15.1201 8.688 15.2161 7.728 15.4081C6.768 15.6001 5.888 15.8401 5.088 16.1281C4.288 16.4161 3.632 16.7041 3.12 16.9921L0.528004 16.4641L1.392 5.24521e-05H19.872V3.45605H4.56L3.696 13.5841C4.24 13.3281 4.912 13.0561 5.712 12.7681C6.512 12.4801 7.376 12.2401 8.304 12.0481C9.232 11.8241 10.144 11.7121 11.04 11.7121C13.12 11.7121 14.912 12.0321 16.416 12.6721C17.92 13.2801 19.088 14.2721 19.92 15.6481C20.752 16.9921 21.168 18.8001 21.168 21.0721C21.168 23.5041 20.736 25.5361 19.872 27.1681C19.04 28.8001 17.824 30.0321 16.224 30.8641C14.656 31.6961 12.752 32.1121 10.512 32.1121Z" fill="#4F39F6"/>
</svg>
