<svg width="56" height="56" viewBox="0 0 56 56" fill="none" xmlns="http://www.w3.org/2000/svg">
<rect width="56" height="56" rx="14" fill="url(#paint0_linear_1_59)"/>
<path d="M31.5 30.3334C31.7333 29.1667 32.3167 28.35 33.25 27.4167C34.4167 26.3667 35 24.85 35 23.3334C35 21.4769 34.2625 19.6964 32.9497 18.3836C31.637 17.0709 29.8565 16.3334 28 16.3334C26.1435 16.3334 24.363 17.0709 23.0503 18.3836C21.7375 19.6964 21 21.4769 21 23.3334C21 24.5 21.2333 25.9 22.75 27.4167C23.5667 28.2334 24.2667 29.1667 24.5 30.3334" stroke="white" stroke-width="2.33333" stroke-linecap="round" stroke-linejoin="round"/>
<path d="M24.5 35H31.5" stroke="white" stroke-width="2.33333" stroke-linecap="round" stroke-linejoin="round"/>
<path d="M25.6667 39.6666H30.3333" stroke="white" stroke-width="2.33333" stroke-linecap="round" stroke-linejoin="round"/>
<defs>
<linearGradient id="paint0_linear_1_59" x1="0" y1="0" x2="56" y2="56" gradientUnits="userSpaceOnUse">
<stop stop-color="#155DFC"/>
<stop offset="1" stop-color="#4F39F6"/>
</linearGradient>
</defs>
</svg>
