<svg width="48" height="48" viewBox="0 0 48 48" fill="none" xmlns="http://www.w3.org/2000/svg">
<rect width="48" height="48" rx="14" fill="#DBEAFE"/>
<path d="M27.4772 24.89L28.9922 33.416C29.0092 33.5164 28.9951 33.6196 28.9519 33.7118C28.9086 33.8039 28.8382 33.8807 28.7502 33.9318C28.6621 33.9829 28.5605 34.0059 28.459 33.9977C28.3576 33.9895 28.261 33.9506 28.1822 33.886L24.6022 31.199C24.4294 31.0699 24.2195 31.0001 24.0037 31.0001C23.788 31.0001 23.5781 31.0699 23.4052 31.199L19.8192 33.885C19.7406 33.9494 19.6441 33.9884 19.5427 33.9966C19.4414 34.0048 19.3399 33.9818 19.2519 33.9309C19.1639 33.8799 19.0935 33.8033 19.0502 33.7113C19.0068 33.6194 18.9925 33.5163 19.0092 33.416L20.5232 24.89" stroke="#155DFC" stroke-width="2" stroke-linecap="round" stroke-linejoin="round"/>
<path d="M24 26C27.3137 26 30 23.3137 30 20C30 16.6863 27.3137 14 24 14C20.6863 14 18 16.6863 18 20C18 23.3137 20.6863 26 24 26Z" stroke="#155DFC" stroke-width="2" stroke-linecap="round" stroke-linejoin="round"/>
</svg>
