<svg width="48" height="48" viewBox="0 0 48 48" fill="none" xmlns="http://www.w3.org/2000/svg">
<rect width="48" height="48" rx="14" fill="#E0E7FF"/>
<path d="M24 19V33" stroke="#4F39F6" stroke-width="2" stroke-linecap="round" stroke-linejoin="round"/>
<path d="M15 30C14.7348 30 14.4804 29.8946 14.2929 29.7071C14.1054 29.5196 14 29.2652 14 29V16C14 15.7348 14.1054 15.4804 14.2929 15.2929C14.4804 15.1054 14.7348 15 15 15H20C21.0609 15 22.0783 15.4214 22.8284 16.1716C23.5786 16.9217 24 17.9391 24 19C24 17.9391 24.4214 16.9217 25.1716 16.1716C25.9217 15.4214 26.9391 15 28 15H33C33.2652 15 33.5196 15.1054 33.7071 15.2929C33.8946 15.4804 34 15.7348 34 16V29C34 29.2652 33.8946 29.5196 33.7071 29.7071C33.5196 29.8946 33.2652 30 33 30H27C26.2044 30 25.4413 30.3161 24.8787 30.8787C24.3161 31.4413 24 32.2044 24 33C24 32.2044 23.6839 31.4413 23.1213 30.8787C22.5587 30.3161 21.7956 30 21 30H15Z" stroke="#4F39F6" stroke-width="2" stroke-linecap="round" stroke-linejoin="round"/>
</svg>
