<svg width="40" height="40" viewBox="0 0 40 40" fill="none" xmlns="http://www.w3.org/2000/svg">
<rect width="40" height="40" rx="10" fill="url(#paint0_linear_1_122)"/>
<path d="M20 15V29" stroke="white" stroke-width="2" stroke-linecap="round" stroke-linejoin="round"/>
<path d="M11 26C10.7348 26 10.4805 25.8946 10.2929 25.7071C10.1054 25.5196 10 25.2652 10 25V12C10 11.7348 10.1054 11.4804 10.2929 11.2929C10.4805 11.1054 10.7348 11 11 11H16C17.0609 11 18.0783 11.4214 18.8285 12.1716C19.5786 12.9217 20 13.9391 20 15C20 13.9391 20.4215 12.9217 21.1716 12.1716C21.9217 11.4214 22.9392 11 24 11H29C29.2652 11 29.5196 11.1054 29.7071 11.2929C29.8947 11.4804 30 11.7348 30 12V25C30 25.2652 29.8947 25.5196 29.7071 25.7071C29.5196 25.8946 29.2652 26 29 26H23C22.2044 26 21.4413 26.3161 20.8787 26.8787C20.3161 27.4413 20 28.2044 20 29C20 28.2044 19.684 27.4413 19.1214 26.8787C18.5587 26.3161 17.7957 26 17 26H11Z" stroke="white" stroke-width="2" stroke-linecap="round" stroke-linejoin="round"/>
<defs>
<linearGradient id="paint0_linear_1_122" x1="0" y1="0" x2="40" y2="40" gradientUnits="userSpaceOnUse">
<stop stop-color="#155DFC"/>
<stop offset="1" stop-color="#4F39F6"/>
</linearGradient>
</defs>
</svg>
