<svg width="40" height="40" viewBox="0 0 40 40" fill="none" xmlns="http://www.w3.org/2000/svg">
<rect width="40" height="40" rx="14" fill="#4F39F6"/>
<path d="M17.0401 26V24.912L20.0801 21.728C20.5175 21.2693 20.8961 20.8587 21.2161 20.496C21.5361 20.1227 21.7815 19.76 21.9521 19.408C22.1228 19.0453 22.2081 18.6613 22.2081 18.256C22.2081 17.5627 22.0161 17.088 21.6321 16.832C21.2588 16.5653 20.6935 16.432 19.9361 16.432C19.6588 16.432 19.3495 16.4533 19.0081 16.496C18.6668 16.528 18.3361 16.5707 18.0161 16.624C17.7068 16.6667 17.4401 16.7147 17.2161 16.768L17.1201 15.712C17.3441 15.648 17.6215 15.584 17.9521 15.52C18.2828 15.456 18.6401 15.4027 19.0241 15.36C19.4188 15.3067 19.8028 15.28 20.1761 15.28C21.2961 15.28 22.1335 15.504 22.6881 15.952C23.2535 16.4 23.5361 17.12 23.5361 18.112C23.5361 18.6347 23.4508 19.104 23.2801 19.52C23.1201 19.936 22.8748 20.3467 22.5441 20.752C22.2241 21.1467 21.8135 21.5893 21.3121 22.08L18.5441 24.88H23.7921V26H17.0401Z" fill="white"/>
</svg>
