<svg width="40" height="40" viewBox="0 0 40 40" fill="none" xmlns="http://www.w3.org/2000/svg">
<rect width="40" height="40" rx="14" fill="#155DFC"/>
<path d="M20.3841 26.16C19.9788 26.16 19.5575 26.1333 19.1201 26.08C18.6828 26.0373 18.2721 25.984 17.8881 25.92C17.5041 25.856 17.1841 25.792 16.9281 25.728L17.0401 24.688C17.2855 24.7307 17.5895 24.7787 17.9521 24.832C18.3148 24.8853 18.6988 24.9333 19.1041 24.976C19.5095 25.008 19.8935 25.024 20.2561 25.024C21.0241 25.024 21.5895 24.8587 21.9521 24.528C22.3255 24.1867 22.5121 23.6853 22.5121 23.024C22.5121 22.544 22.4161 22.1653 22.2241 21.888C22.0321 21.6107 21.7708 21.408 21.4401 21.28C21.1201 21.152 20.7628 21.0827 20.3681 21.072H18.2401V19.968H20.3681C20.6348 19.968 20.9121 19.8933 21.2001 19.744C21.4988 19.5947 21.7495 19.3813 21.9521 19.104C22.1548 18.816 22.2561 18.4747 22.2561 18.08C22.2561 17.4827 22.0908 17.056 21.7601 16.8C21.4401 16.5333 20.8961 16.4 20.1281 16.4C19.7761 16.4 19.4135 16.4213 19.0401 16.464C18.6775 16.496 18.3308 16.5387 18.0001 16.592C17.6801 16.6347 17.4135 16.6827 17.2001 16.736L17.0881 15.712C17.3015 15.648 17.5735 15.584 17.9041 15.52C18.2455 15.4453 18.6135 15.3867 19.0081 15.344C19.4028 15.2907 19.7921 15.264 20.1761 15.264C21.0188 15.264 21.6855 15.3653 22.1761 15.568C22.6775 15.76 23.0348 16.0587 23.2481 16.464C23.4721 16.8693 23.5841 17.3867 23.5841 18.016C23.5841 18.4213 23.5201 18.768 23.3921 19.056C23.2641 19.3333 23.1095 19.568 22.9281 19.76C22.7468 19.9413 22.5708 20.0853 22.4001 20.192C22.2295 20.2987 22.1015 20.3787 22.0161 20.432C22.3788 20.56 22.6935 20.7147 22.9601 20.896C23.2375 21.0667 23.4508 21.3173 23.6001 21.648C23.7601 21.968 23.8401 22.4107 23.8401 22.976C23.8401 23.6907 23.7175 24.2827 23.4721 24.752C23.2375 25.2213 22.8641 25.5733 22.3521 25.808C21.8401 26.0427 21.1841 26.16 20.3841 26.16Z" fill="white"/>
</svg>
