<svg width="19" height="18" viewBox="0 0 19 18" fill="none" xmlns="http://www.w3.org/2000/svg">
<path d="M7.49962 15C7.49955 15.1549 7.54263 15.3067 7.62403 15.4384C7.70543 15.5702 7.82192 15.6766 7.96045 15.7458L9.62712 16.5792C9.7542 16.6427 9.8954 16.6726 10.0373 16.6662C10.1792 16.6598 10.3172 16.6172 10.438 16.5425C10.5588 16.4677 10.6585 16.3633 10.7276 16.2392C10.7968 16.1151 10.833 15.9754 10.833 15.8333V10C10.8331 9.58699 10.9867 9.18876 11.2638 8.88251L17.283 2.22501C17.3908 2.10548 17.4618 1.95725 17.4872 1.79825C17.5126 1.63925 17.4914 1.47629 17.4262 1.32907C17.361 1.18186 17.2545 1.0567 17.1196 0.96872C16.9848 0.880744 16.8273 0.833723 16.6663 0.833344H1.66628C1.50512 0.833402 1.34744 0.88019 1.21233 0.96804C1.07721 1.05589 0.970476 1.18103 0.905039 1.32831C0.839601 1.47559 0.818274 1.63868 0.843639 1.79784C0.869004 1.95699 0.939974 2.10537 1.04795 2.22501L7.06878 8.88251C7.3459 9.18876 7.49943 9.58699 7.49962 10V15Z" stroke="#4A5565" stroke-width="1.66667" stroke-linecap="round" stroke-linejoin="round"/>
</svg>
